<svg width="31" height="29" viewBox="0 0 31 29" fill="none" xmlns="http://www.w3.org/2000/svg">
<path d="M22.0721 2.45L16.3465 1.84372C11.6135 1.34257 7.10965 3.99567 5.25356 8.37819L1.50775 17.2226C-0.0564586 20.916 2.94943 24.9224 6.93286 24.4535L7.68612 24.3648C9.88924 24.1054 11.5496 22.2382 11.5496 20.0199V20.0199C11.5496 17.6037 13.5083 15.645 15.9244 15.645H17.5315C20.8353 15.645 23.5135 12.9668 23.5135 9.66302V6.50445C23.5135 5.39955 24.2647 4.4361 25.3362 4.16662V4.16662C26.791 3.80076 28.2231 4.83826 28.3288 6.33464L29.0334 16.3128C29.5258 23.2849 23.3622 28.879 16.4703 27.7151L10.2523 26.665" stroke="white" stroke-width="2"/>
</svg>
